<svg viewBox="0 0 200 200" xmlns="http://www.w3.org/2000/svg">
  <title>never-mind-the-bollards Logo (Dark Theme)</title>
  <desc>Logo optimized for dark backgrounds</desc>
  <rect width="200" height="200" fill="#000000"/>
  <g fill="#FFFFFF">
    <path d="M120 150Q140 110 170 90L160 80Q130 100 100 100L90 120Z" />
    <circle cx="60" cy="130" r="15" fill="#FFFFFF"/>
    <path d="M85 115C80 110 70 110 65 115Q70 130 85 130Z" fill="#66B2FF"/>
    <path d="M110 90L100 70C95 65 90 70 90 80L100 100Z" />
    <circle cx="30" cy="125" r="5" fill="#000000" />
    <path d="M120 140C110 145 100 150 90 140C100 145 110 150 120 140Z" fill="#FFCC00"/>
    <path d="M150 60C140 50 130 60 130 70C140 60 150 60 150 60Z" />
  </g>
</svg>